<svg xmlns="http://www.w3.org/2000/svg" xml:space="preserve" width="512" height="512" style="enable-background:new 0 0 297 297" viewBox="0 0 297 297"><path fill="#FFF" d="M252.07 167.87c-4.949-29.482-26.585-35.193-35.98-36.267-6.673-8.979-16.33-13.892-27.432-13.892-2.664 0-5.165.28-7.412.697-6.587-7.587-15.832-11.686-26.139-11.686-.209 0-.906.002-.906.005v-9.013c15-9.416 24.883-25.934 24.883-44.716 0-29.225-23.635-53-52.859-53S73.066 23.775 73.066 53c0 18.65 10.135 35.069 24.135 44.518v43.873l-.429-1.012c-5.388-8.765-13.937-13.786-23.688-13.787-10.507-.001-20.581 5.932-25.753 15.112-4.941 8.77-4.662 18.985.701 28.089l62.342 119.392c2.486 4.759 7.382 7.815 12.751 7.815h87.757c7.578 0 13.879-6.025 14.343-13.59l2.04-33.263c21.767-33.503 28.962-57.507 24.805-82.277zM85.136 53c0-22.607 18.508-41 41.115-41s40.776 18.393 40.776 41c0 11.592-4.826 22.066-12.826 29.531V69.753c0-3.05-.842-8.673-.842-8.673.761-2.562 1.259-5.271 1.259-8.08 0-15.649-12.643-28.335-28.293-28.335-15.648 0-28.313 12.686-28.313 28.335 0 2.568.364 5.053 1.005 7.419-.017.052-.199.101-.216.152-.909 2.859-1.599 5.939-1.599 9.182v12.484C90.201 74.793 85.136 64.438 85.136 53zm130.696 192.648a2.382 2.382 0 0 0-.39 1.16l-2.196 35.866c-.076 1.25-1.112 2.325-2.365 2.325h-87.757c-.883 0-1.692-.591-2.1-1.373l-62.485-119.64c-7.93-13.086 3.246-25.37 14.658-25.369 5.049 0 10.146 2.388 13.653 8.176l7.994 12.275c1.653 2.54 3.943 3.674 6.438 3.674 4.107 0 7.918-3.088 7.918-8.077V69.753c0-11.035 8.224-16.552 16.5-16.552s16.5 5.517 16.5 16.552v48.273c0 1.346 1.381 2.376 2.637 2.376.236 0 .618-.037.86-.114 2.311-.744 5.794-1.564 9.619-1.564 6.569 0 14.385 2.422 19.857 11.809a2.545 2.545 0 0 0 2.181 1.262c.278 0 .57-.049.845-.15 2.201-.81 6.048-1.932 10.454-1.932 6.133 0 13.357 2.176 18.744 10.4 1.285 1.962 3.461 3.149 5.801 3.282 7.438.422 23.267 4.01 27.036 26.462 3.619 21.557-2.617 42.796-24.402 75.791z"/></svg>