<svg xmlns="http://www.w3.org/2000/svg" xml:space="preserve" width="512" height="512" style="enable-background:new 0 0 512 512"><path fill="#FFF" d="M0 0v512h512V0H0zm195.048 420.571v36.571H54.857v-140.19h36.571v77.762l102.88-102.88 25.86 25.86-102.877 102.877h77.757zm-.739-200.401L91.429 117.291v77.757H54.857V54.857h140.19v36.571h-77.762L220.169 194.31l-25.86 25.86zm262.834 236.973h-140.19v-36.571h77.757l-102.878-102.88 25.86-25.86 102.88 102.883v-77.762h36.571v140.19zm0-262.095h-36.571v-77.757l-102.88 102.88-25.86-25.86L394.714 91.429h-77.762V54.857h140.19v140.191z"/></svg>