<svg xmlns="http://www.w3.org/2000/svg" xml:space="preserve" width="512" height="512" style="enable-background:new 0 0 273.881 273.881" viewBox="0 0 273.881 273.881"><g fill="#FFF"><path d="M249.931 144.833c-4.948-29.482-26.584-35.193-35.98-36.267-6.672-8.979-16.329-13.892-27.432-13.892-2.663 0-5.164.378-7.411.794-6.587-7.586-15.392-11.588-25.698-11.588h-.797V46.715c0-16.276-12.223-28.551-28.5-28.551s-28.5 12.274-28.5 28.551v71.639l-.704-1.012c-5.389-8.764-14.075-13.786-23.826-13.787-10.508-.001-20.65 5.932-25.823 15.112-4.94 8.771-4.696 18.985.666 28.089l62.325 119.351c2.486 4.759 7.364 7.774 12.733 7.774h87.758c7.578 0 13.878-5.984 14.343-13.549l2.039-33.243c21.77-33.502 28.965-57.487 24.807-82.256zm-36.627 78.938-2.196 35.825c-.076 1.25-1.113 2.284-2.365 2.284h-87.758c-.882 0-1.691-.55-2.1-1.332L56.4 140.928c-7.929-13.086 3.246-25.36 14.659-25.359 5.049.001 10.146 2.393 13.653 8.182l7.994 12.277c1.653 2.54 4.218 3.676 6.712 3.676 4.107 0 8.194-3.087 8.194-8.077V46.715c0-11.034 8.224-16.551 16.5-16.551s16.5 5.517 16.5 16.551v48.273a2.38 2.38 0 0 0 2.363 2.377c.235 0 .481-.037.721-.114 2.31-.744 5.726-1.565 9.55-1.564 6.569 0 14.351 2.422 19.823 11.809a2.52 2.52 0 0 0 2.164 1.262c.278 0 .562-.049.837-.15 2.2-.81 6.044-1.932 10.449-1.932 6.133 0 13.355 2.176 18.743 10.4 1.285 1.962 3.46 3.15 5.8 3.282 7.438.422 23.266 4.01 27.035 26.462 3.618 21.558-2.618 42.797-24.403 75.792a2.365 2.365 0 0 0-.39 1.159zM45.613 77.881a6 6 0 0 0 12 0V20.626l12.17 12.003c2.342 2.342 6.225 2.343 8.569-.001 2.343-2.343 2.384-6.142.041-8.485L56.026 1.757a5.988 5.988 0 0 0-8.475.001L24.582 24.733a5.999 5.999 0 0 0 .004 8.485 5.985 5.985 0 0 0 4.244 1.757c1.535 0 2.905-.586 4.077-1.758l12.706-12.873v57.537z"/></g></svg>